# 3ds Max Wavefront OBJ Exporter v0.97b - (c)2007 guruware

mtllib jiantou.mtl

#
# object Rectangle0
#

v  0.0001 0.0143 -0.2510
v  0.2097 0.0145 -0.0808
v  0.2095 -0.0142 -0.0807
v  -0.0001 -0.0144 -0.2510
v  -0.2095 0.0145 -0.0808
v  -0.2097 -0.0142 -0.0807
v  -0.2095 0.0146 0.0501
v  -0.2097 -0.0141 0.0501
v  0.0001 0.0144 -0.1202
v  -0.0001 -0.0143 -0.1202
v  0.2097 0.0146 0.0501
v  0.2095 -0.0141 0.0501
v  0.0001 0.0143 -0.0501
v  0.2097 0.0145 0.1202
v  0.2095 -0.0142 0.1202
v  -0.0001 -0.0144 -0.0501
v  -0.2095 0.0145 0.1202
v  -0.2097 -0.0142 0.1202
v  -0.2095 0.0146 0.2510
v  -0.2097 -0.0141 0.2510
v  0.0001 0.0144 0.0807
v  -0.0001 -0.0143 0.0808
v  0.2097 0.0146 0.2510
v  0.2095 -0.0141 0.2510
# 24 vertices

vn 0.6005 -0.0050 -0.7996
vn -0.6005 0.0037 -0.7996
vn -1.0000 0.0072 -0.0000
vn 0.6005 -0.0037 0.7996
vn -0.6005 0.0050 0.7996
vn 1.0000 -0.0072 0.0000
vn -0.0000 -1.0000 0.0008
vn 0.0000 -1.0000 0.0008
vn -0.0000 1.0000 -0.0008
vn 0.0000 1.0000 -0.0008
# 10 vertex normals

vt 0.5005 0.0722 0.0000
vt 0.7392 0.0720 0.0000
vt 0.7390 0.1047 0.0000
vt 0.5002 0.1049 0.0000
vt 0.2617 0.0720 0.0000
vt 0.2615 0.1047 0.0000
vt 0.4335 0.3545 0.0000
vt 0.5713 0.3546 0.0000
vt 0.5712 0.3872 0.0000
vt 0.4335 0.3871 0.0000
vt 0.5002 0.2452 0.0000
vt 0.7390 0.2451 0.0000
vt 0.7392 0.2778 0.0000
vt 0.5005 0.2779 0.0000
vt 0.2615 0.2451 0.0000
vt 0.2617 0.2778 0.0000
vt 0.4296 0.3027 0.0000
vt 0.5674 0.3026 0.0000
vt 0.5674 0.3353 0.0000
vt 0.4297 0.3354 0.0000
vt 0.2741 0.6386 0.0000
vt 0.4707 0.4736 0.0000
vt 0.4707 0.6062 0.0000
vt 0.2741 0.7715 0.0000
vt 0.0772 0.6064 0.0000
vt 0.0772 0.4737 0.0000
vt 0.2741 0.8298 0.0000
vt 0.4707 0.6649 0.0000
vt 0.4707 0.7979 0.0000
vt 0.2741 0.9630 0.0000
vt 0.0772 0.7980 0.0000
vt 0.0772 0.6649 0.0000
vt 0.5005 0.1299 0.0000
vt 0.7392 0.1297 0.0000
vt 0.7390 0.1624 0.0000
vt 0.5002 0.1625 0.0000
vt 0.2617 0.1297 0.0000
vt 0.2615 0.1624 0.0000
vt 0.6000 0.3026 0.0000
vt 0.7377 0.3027 0.0000
vt 0.7377 0.3354 0.0000
vt 0.6000 0.3353 0.0000
vt 0.5002 0.1875 0.0000
vt 0.7390 0.1874 0.0000
vt 0.7392 0.2201 0.0000
vt 0.5005 0.2202 0.0000
vt 0.2615 0.1874 0.0000
vt 0.2617 0.2201 0.0000
vt 0.2615 0.3029 0.0000
vt 0.3992 0.3028 0.0000
vt 0.3993 0.3354 0.0000
vt 0.2615 0.3356 0.0000
vt 0.7288 0.8298 0.0000
vt 0.9254 0.6649 0.0000
vt 0.9254 0.7978 0.0000
vt 0.7288 0.9628 0.0000
vt 0.5320 0.7979 0.0000
vt 0.5320 0.6649 0.0000
vt 0.7288 0.6383 0.0000
vt 0.9255 0.4734 0.0000
vt 0.9255 0.6064 0.0000
vt 0.7288 0.7713 0.0000
vt 0.5320 0.6064 0.0000
vt 0.5320 0.4734 0.0000
# 64 texture coords

g Rectangle0
usemtl wire_134110008
s 1
f 1/1/1 2/2/1 3/3/1 
f 3/3/1 4/4/1 1/1/1 
s 4
f 5/5/2 1/1/2 4/4/2 
f 4/4/2 6/6/2 5/5/2 
s 2
f 7/7/3 5/8/3 6/9/3 
f 6/9/3 8/10/3 7/7/3 
s 4
f 9/11/4 7/12/4 8/13/4 
f 8/13/4 10/14/4 9/11/4 
s 2
f 11/15/5 9/11/5 10/14/5 
f 10/14/5 12/16/5 11/15/5 
s 4
f 2/17/6 11/18/6 12/19/6 
f 12/19/6 3/20/6 2/17/6 
s 16
f 10/21/7 8/22/7 6/23/7 
f 10/21/7 6/23/7 4/24/7 
f 10/21/7 4/24/7 3/25/8 
f 10/21/7 3/25/8 12/26/8 
f 9/27/9 11/28/9 2/29/9 
f 9/27/9 2/29/9 1/30/9 
f 9/27/9 1/30/9 5/31/10 
f 9/27/9 5/31/10 7/32/10 
s 1
f 13/33/1 14/34/1 15/35/1 
f 15/35/1 16/36/1 13/33/1 
s 4
f 17/37/2 13/33/2 16/36/2 
f 16/36/2 18/38/2 17/37/2 
s 2
f 19/39/3 17/40/3 18/41/3 
f 18/41/3 20/42/3 19/39/3 
s 4
f 21/43/4 19/44/4 20/45/4 
f 20/45/4 22/46/4 21/43/4 
s 2
f 23/47/5 21/43/5 22/46/5 
f 22/46/5 24/48/5 23/47/5 
s 4
f 14/49/6 23/50/6 24/51/6 
f 24/51/6 15/52/6 14/49/6 
s 16
f 22/53/8 20/54/7 18/55/7 
f 22/53/8 18/55/7 16/56/8 
f 22/53/8 16/56/8 15/57/8 
f 22/53/8 15/57/8 24/58/8 
f 21/59/9 23/60/9 14/61/9 
f 21/59/9 14/61/9 13/62/9 
f 21/59/9 13/62/9 17/63/10 
f 21/59/9 17/63/10 19/64/10 
# 0 polygons - 40 triangles

