# Blender v2.80 (sub 75) OBJ File: 'step2.blend'
# www.blender.org
mtllib zuoyou.mtl
o zuoyou.008
v 98.185860 -44.500000 2.499993
v -32.814140 -44.500000 2.499993
v -32.814140 -44.500000 -2.500007
v 98.185860 -44.500000 -2.500007
v 116.185860 -26.500000 2.499996
v 116.185860 -26.500000 -2.500004
v 116.185860 44.500000 2.500007
v 116.185860 44.500000 -2.499993
v -32.814140 44.500000 2.500007
v -32.814140 44.500000 -2.499993
v -115.500000 44.500000 2.500007
v -100.500000 44.500000 2.500007
v -100.500000 44.500000 -2.499993
v -115.500000 44.500000 -2.499993
v -115.500000 29.499701 2.500005
v -115.500000 29.499701 -2.499995
v 116.185860 -44.500000 2.499993
v 101.185860 -44.500000 2.499993
v 101.185860 -44.500000 -2.500007
v 116.185860 -44.500000 -2.500007
v 116.185860 -29.500000 2.499995
v 116.185860 -29.500000 -2.500005
v -97.500000 44.500000 2.500007
v -35.500000 44.500000 2.500007
v -35.500000 44.500000 -2.499993
v -97.500000 44.500000 -2.499993
v -115.500000 26.500000 2.500004
v -115.500000 26.500000 -2.499996
v -115.500000 -44.500000 2.499993
v -115.500000 -44.500000 -2.500007
v -35.500000 -44.500000 2.499993
v -35.500000 -44.500000 -2.500007
v -33.500011 -44.500000 2.499993
v -33.500011 -44.500000 -2.500007
v -33.500011 44.500000 2.500007
v -33.500011 44.500000 -2.499993
vt 0.586200 0.153900
vt 0.798900 0.153900
vt 0.798900 0.162000
vt 0.586200 0.162000
vt 0.701500 0.172500
vt 0.730700 0.172500
vt 0.730700 0.180600
vt 0.701500 0.180600
vt 0.586200 0.172500
vt 0.586200 0.180600
vt 0.586200 0.135300
vt 0.828100 0.135300
vt 0.828100 0.143500
vt 0.586200 0.143500
vt 0.064513 0.324203
vt 0.062472 0.062549
vt 0.064549 0.062574
vt 0.798900 0.162000
vt 0.881500 0.172500
vt 0.905900 0.172500
vt 0.905900 0.180600
vt 0.881500 0.180600
vt 0.932300 0.191000
vt 0.956600 0.191000
vt 0.956600 0.199200
vt 0.932300 0.199200
vt 0.887400 0.209600
vt 0.911700 0.209600
vt 0.911700 0.217700
vt 0.887400 0.217700
vt 0.697300 0.209600
vt 0.721700 0.209600
vt 0.721700 0.217700
vt 0.697300 0.217700
vt 0.932300 0.209600
vt 0.956600 0.209600
vt 0.956600 0.217700
vt 0.932300 0.217700
vt 0.887400 0.191000
vt 0.921800 0.191000
vt 0.921800 0.199200
vt 0.887400 0.199200
vt 0.586200 0.209600
vt 0.686900 0.209600
vt 0.686900 0.217700
vt 0.586200 0.217700
vt 0.701500 0.191000
vt 0.730700 0.191000
vt 0.730700 0.199200
vt 0.701500 0.199200
vt 0.586200 0.191000
vt 0.586200 0.199200
vt 0.741200 0.172500
vt 0.871100 0.172500
vt 0.871100 0.180600
vt 0.741200 0.180600
vt 0.809400 0.153900
vt 0.953900 0.153900
vt 0.953900 0.162000
vt 0.809400 0.162000
vt 0.066500 0.630800
vt 0.066500 0.423700
vt 0.121300 0.369200
vt 0.498000 0.630800
vt 0.498000 0.369200
vt 0.941400 0.630800
vt 0.895700 0.630800
vt 0.941400 0.584200
vt 0.066500 0.415600
vt 0.066500 0.369200
vt 0.113200 0.369200
vt 0.941400 0.576300
vt 0.885000 0.630800
vt 0.703100 0.630800
vt 0.941400 0.369100
vt 0.703100 0.369100
vt 0.443900 0.062700
vt 0.500000 0.116800
vt 0.500000 0.324300
vt 0.382800 0.976600
vt 0.382800 0.929900
vt 0.429500 0.976600
vt 0.500000 0.108400
vt 0.453600 0.062500
vt 0.500000 0.062500
vt 0.382900 0.714800
vt 0.621100 0.715000
vt 0.621100 0.976500
vt 0.438700 0.976600
vt 0.382800 0.923000
vt 0.838600 0.135300
vt 0.983100 0.135300
vt 0.983100 0.143500
vt 0.838600 0.143500
vt 0.586200 0.135300
vt 0.500060 0.369143
vt 0.497962 0.630852
vt 0.500112 0.630898
vt 0.062463 0.324213
vt 0.798900 0.153900
vt 0.586200 0.143500
vt 0.497971 0.369151
vn 0.0000 -1.0000 0.0000
vn 0.7071 -0.7071 0.0000
vn 1.0000 -0.0000 0.0000
vn 0.0000 1.0000 0.0000
vn 0.0000 0.7071 0.7071
vn 0.0000 -0.7071 0.7071
vn 0.0000 -0.7071 -0.7071
vn -1.0000 0.0000 0.0000
vn -0.7071 0.7071 0.0000
vn 0.0000 0.0000 -1.0000
vn 0.0000 -0.0000 1.0000
vn 0.0000 0.7071 -0.7071
usemtl wire_088144225.004
s 1
f 1/1/1 2/2/1 3/3/1
f 3/3/1 4/4/1 1/1/1
f 5/5/2 1/6/2 4/7/2
f 4/7/2 6/8/2 5/5/2
f 7/9/3 5/5/3 6/8/3
f 6/8/3 8/10/3 7/9/3
f 9/11/4 7/12/4 8/13/4
f 8/13/4 10/14/4 9/11/4
f 9/15/5 33/16/6 2/17/6
f 2/2/6 34/18/7 3/3/7
f 11/19/4 12/20/4 13/21/4
f 13/21/4 14/22/4 11/19/4
f 15/23/8 11/24/8 14/25/8
f 14/25/8 16/26/8 15/23/8
f 12/27/2 15/28/2 16/29/2
f 16/29/2 13/30/2 12/27/2
f 17/31/1 18/32/1 19/33/1
f 19/33/1 20/34/1 17/31/1
f 21/35/3 17/36/3 20/37/3
f 20/37/3 22/38/3 21/35/3
f 18/39/9 21/40/9 22/41/9
f 22/41/9 19/42/9 18/39/9
f 23/43/4 24/44/4 25/45/4
f 25/45/4 26/46/4 23/43/4
f 27/47/9 23/48/9 26/49/9
f 26/49/9 28/50/9 27/47/9
f 29/51/8 27/47/8 28/50/8
f 28/50/8 30/52/8 29/51/8
f 31/53/1 29/54/1 30/55/1
f 30/55/1 32/56/1 31/53/1
f 24/57/3 31/58/3 32/59/3
f 32/59/3 25/60/3 24/57/3
f 8/61/10 6/62/10 4/63/10
f 10/64/10 8/61/10 4/63/10
f 10/64/10 4/63/10 3/65/10
f 14/66/10 13/67/10 16/68/10
f 22/69/10 20/70/10 19/71/10
f 28/72/10 26/73/10 25/74/10
f 30/75/10 28/72/10 25/74/10
f 30/75/10 25/74/10 32/76/10
f 9/15/11 2/17/11 1/77/11
f 1/77/11 5/78/11 7/79/11
f 9/15/11 1/77/11 7/79/11
f 11/80/11 15/81/11 12/82/11
f 21/83/11 18/84/11 17/85/11
f 29/86/11 31/87/11 24/88/11
f 24/88/11 23/89/11 27/90/11
f 29/86/11 24/88/11 27/90/11
f 33/91/8 35/92/8 36/93/8
f 36/93/8 34/94/8 33/91/8
f 10/14/12 35/95/5 9/11/5
f 3/96/7 36/97/12 10/98/12
f 9/15/5 35/99/5 33/16/6
f 2/2/6 33/100/6 34/18/7
f 10/14/12 36/101/12 35/95/5
f 3/96/7 34/102/7 36/97/12
