<?xml version="1.0" encoding="UTF-8"?>
<svg width="48px" height="48px" viewBox="0 0 48 48" version="1.1" xmlns="http://www.w3.org/2000/svg" xmlns:xlink="http://www.w3.org/1999/xlink">
    <title>返回备份@2x</title>
    <g id="-登录注册-最最新" stroke="none" stroke-width="1" fill="none" fill-rule="evenodd">
        <g id="返回备份">
            <g id="nav_icon_arrow_def">
                <rect id="矩形" opacity="0.5" x="0" y="0" width="48" height="48"></rect>
                <path d="M13.0226693,9.74371446 L12.8786797,9.87867966 L0.878679656,21.8786797 C-0.246030304,23.0033896 -0.291018702,24.7989525 0.743714461,25.9773307 L0.878679656,26.1213203 L12.8786797,38.1213203 C14.0502525,39.2928932 15.9497475,39.2928932 17.1213203,38.1213203 C18.2460303,36.9966104 18.2910187,35.2010475 17.2562855,34.0226693 L17.1213203,33.8786797 L10.244,27 L45,27 C46.6568542,27 48,25.6568542 48,24 C48,22.3431458 46.6568542,21 45,21 L10.242,21 L17.1213203,14.1213203 C18.2460303,12.9966104 18.2910187,11.2010475 17.2562855,10.0226693 L17.1213203,9.87867966 C15.9966104,8.7539697 14.2010475,8.7089813 13.0226693,9.74371446 Z" id="路径" fill="#000000"></path>
            </g>
        </g>
    </g>
</svg>