<?xml version="1.0" encoding="UTF-8"?>
<svg width="60px" height="60px" viewBox="0 0 60 60" version="1.1" xmlns="http://www.w3.org/2000/svg" xmlns:xlink="http://www.w3.org/1999/xlink">
    <title>图标 / 弹窗 / 关闭 - 常规备份@2x</title>
    <g id="-登录注册-最最新" stroke="none" stroke-width="1" fill="none" fill-rule="evenodd">
        <g id="图标-/-弹窗-/-关闭---常规">
            <g id="popup_icon_close_def">
                <circle id="椭圆形" fill="#0A121A" opacity="0.049999997" cx="30" cy="30" r="30"></circle>
                <path d="M22.4201066,19.2545543 L22.5909903,19.4090097 L30,26.819 L37.4090097,19.4090097 C38.2876894,18.5303301 39.7123106,18.5303301 40.5909903,19.4090097 C41.4147524,20.2327719 41.4662376,21.5363655 40.7454457,22.4201066 L40.5909903,22.5909903 L33.181,30 L40.5909903,37.4090097 C41.4696699,38.2876894 41.4696699,39.7123106 40.5909903,40.5909903 C39.7672281,41.4147524 38.4636345,41.4662376 37.5798934,40.7454457 L37.4090097,40.5909903 L30,33.181 L22.5909903,40.5909903 C21.7123106,41.4696699 20.2876894,41.4696699 19.4090097,40.5909903 C18.5852476,39.7672281 18.5337624,38.4636345 19.2545543,37.5798934 L19.4090097,37.4090097 L26.819,30 L19.4090097,22.5909903 C18.5303301,21.7123106 18.5303301,20.2876894 19.4090097,19.4090097 C20.2327719,18.5852476 21.5363655,18.5337624 22.4201066,19.2545543 Z" id="形状结合" fill="#919599" fill-rule="nonzero"></path>
            </g>
        </g>
    </g>
</svg>