<?xml version="1.0" encoding="UTF-8"?>
<svg width="26px" height="11px" viewBox="0 0 26 11" version="1.1" xmlns="http://www.w3.org/2000/svg" xmlns:xlink="http://www.w3.org/1999/xlink">
    <title>隐藏密码</title>
    <g id="控件" stroke="none" stroke-width="1" fill="none" fill-rule="evenodd">
        <g id="icons/密码不可见" transform="translate(-2.000000, -11.000000)" fill="#000000" fill-rule="nonzero">
            <path d="M27.6829461,15.8578034 L26.2287642,14.3805523 C26.7505242,13.9195964 27.2466638,13.4295403 27.7148883,12.9126509 C28.1192901,12.4650804 28.0899609,11.7692196 27.6493797,11.3584024 C27.2087985,10.9475852 26.5238045,10.9773797 26.1194027,11.4249502 C23.1628549,14.6978918 19.2366719,16.5001822 15.0636137,16.5001822 C10.8569891,16.5001822 6.89020163,14.6736926 3.89359067,11.3562025 C3.63198859,11.0666751 3.23820938,10.9409179 2.86058586,11.0263023 C2.48296235,11.1116867 2.17886452,11.3952408 2.06284309,11.7701526 C1.94682166,12.1450644 2.03650304,12.5543758 2.29810513,12.8439032 C2.78265197,13.3801355 3.29210291,13.877869 3.81941981,14.3448035 L2.33058871,15.8572534 C2.0491113,16.1334262 1.93622432,16.5423964 2.03531598,16.9269761 C2.13440764,17.3115557 2.43005697,17.6118952 2.80863091,17.7125589 C3.18720486,17.8132225 3.58978849,17.6985447 3.86164848,17.4126019 L5.54862946,15.6988587 C6.44222295,16.3163556 7.39072611,16.8475695 8.3817397,17.2855562 L7.55611518,19.3100391 C7.33695556,19.8689329 7.600446,20.5030039 8.14755217,20.7332901 C8.69465834,20.9635763 9.32238512,20.7046337 9.55656279,20.1520612 L10.421709,18.0307815 C11.5580932,18.3635205 12.7296679,18.5736135 13.9234398,18.6555608 L13.9234398,20.9000365 C13.9234398,21.5075296 14.4082197,22 15.006226,22 C15.6042323,22 16.0890122,21.5075296 16.0890123,20.9000365 L16.0890123,18.6654605 C17.3173783,18.5892174 18.5335961,18.3745062 19.7152634,18.0252817 L20.5825752,20.1526112 C20.8167529,20.7051837 21.4444797,20.9641263 21.9915858,20.7338401 C22.538692,20.5035539 22.8021825,19.8694829 22.5830228,19.3105891 L21.7536086,17.2762065 C22.712902,16.8483996 23.631681,16.3323853 24.4984717,15.7346075 L26.1508035,17.4131519 C26.573594,17.8429533 27.2593152,17.8431995 27.6824047,17.4137019 C28.1054942,16.9842043 28.1057366,16.2876048 27.6829461,15.8578034 L27.6829461,15.8578034 Z" id="隐藏密码"></path>
        </g>
    </g>
</svg>