<?xml version="1.0" encoding="UTF-8"?>
<svg width="32px" height="32px" viewBox="0 0 32 32" version="1.1" xmlns="http://www.w3.org/2000/svg" xmlns:xlink="http://www.w3.org/1999/xlink">
    <title>Combined Shape备份@2x</title>
    <g id="-登录注册-最最新" stroke="none" stroke-width="1" fill="none" fill-rule="evenodd">
        <path d="M27.127417,3 L29.2487373,5.14285714 L22.8847763,11.5714286 L20.763456,9.42857143 L21.2044041,8.98424934 C19.8053925,7.77260596 17.9873205,7.04061018 16,7.04061018 C11.581722,7.04061018 8,10.6586958 8,15.1218305 C8,18.2072061 9.71170113,20.8887335 12.2281756,22.2502774 L11.528,22.957 L11.5710678,23 L6.62132034,28 L4.5,25.8571429 L6.25276844,24.0869846 C2.45039813,21.477976 0,17.7831882 0,15.1218305 C0,10.5714695 7.163444,3 16,3 C19.1987463,3 22.1782532,3.99214168 24.678092,5.47397609 L27.127417,3 Z M29.2843831,9.30637244 C30.99923,11.2981754 32,13.4210352 32,15.1218305 C32,19.6721916 24.836556,27.2436611 16,27.2436611 C14.6292562,27.2436611 13.2987722,27.0614702 12.0290416,26.736627 L15.5404559,23.1899411 C15.6925399,23.1986416 15.8457602,23.2030509 16,23.2030509 C20.418278,23.2030509 24,19.5849653 24,15.1218305 C24,14.9658734 23.9956266,14.8109482 23.9869968,14.6571731 L29.2843831,9.30637244 Z M16,11.0812204 C17.984375,11.0812204 19.6312557,12.5408754 19.9458308,14.4552744 L15.3404292,19.1077695 C13.4451303,18.7901202 12,17.1264529 12,15.1218305 C12,12.8902632 13.790861,11.0812204 16,11.0812204 Z" id="Combined-Shape备份" fill="#000000" fill-rule="nonzero"></path>
    </g>
</svg>