<?xml version="1.0" encoding="UTF-8"?>
<svg width="40px" height="40px" viewBox="0 0 40 40" version="1.1" xmlns="http://www.w3.org/2000/svg" xmlns:xlink="http://www.w3.org/1999/xlink">
    <title>Combined Shape Copy 9备份@2x</title>
    <g id="-登录注册-最最新" stroke="none" stroke-width="1" fill="none" fill-rule="evenodd">
        <path d="M16.8858671,2 C25.1071045,2 31.7717342,8.66462972 31.7717342,16.8858671 C31.7717342,20.1008022 30.7525655,23.0776978 29.0196906,25.5110912 L38,34.4913675 L34.4913675,38 L25.5110912,29.0196906 C23.0776978,30.7525655 20.1008022,31.7717342 16.8858671,31.7717342 C8.66462972,31.7717342 2,25.1071045 2,16.8858671 C2,8.66462972 8.66462972,2 16.8858671,2 Z M16.8858671,6.96195571 C11.4050422,6.96195571 6.96195571,11.4050422 6.96195571,16.8858671 C6.96195571,22.3666921 11.4050422,26.8097785 16.8858671,26.8097785 C22.3666921,26.8097785 26.8097785,22.3666921 26.8097785,16.8858671 C26.8097785,11.4050422 22.3666921,6.96195571 16.8858671,6.96195571 Z" id="Combined-Shape-Copy-9备份" fill="#000000" fill-rule="nonzero"></path>
    </g>
</svg>