<?xml version="1.0" encoding="UTF-8"?>
<svg width="32px" height="32px" viewBox="0 0 32 32" version="1.1" xmlns="http://www.w3.org/2000/svg" xmlns:xlink="http://www.w3.org/1999/xlink">
    <title>Combined Shape备份@2x</title>
    <g id="-登录注册-最最新" stroke="none" stroke-width="1" fill="none" fill-rule="evenodd">
        <path d="M16,3 C24.836556,3 32,10.4953724 32,15 C32,19.5046276 24.836556,27 16,27 C7.163444,27 0,19.5046276 0,15 C0,10.4953724 7.163444,3 16,3 Z M16,7 C11.581722,7 8,10.581722 8,15 C8,19.418278 11.581722,23 16,23 C20.418278,23 24,19.418278 24,15 C24,10.581722 20.418278,7 16,7 Z M16,11 C18.209139,11 20,12.790861 20,15 C20,17.209139 18.209139,19 16,19 C13.790861,19 12,17.209139 12,15 C12,12.790861 13.790861,11 16,11 Z" id="Combined-Shape备份" fill="#000000" fill-rule="nonzero"></path>
    </g>
</svg>